<?xml version="1.0" encoding="UTF-8"?>
<svg id="Layer_1" data-name="Layer 1" xmlns="http://www.w3.org/2000/svg" viewBox="0 0 1360.63 1360.63">
  <defs>
    <style>
      .cls-1 {
        fill: #130d09;
      }

      .cls-2 {
        fill: #c7c7c7;
      }

      .cls-3 {
        fill: #f36f21;
      }

      .cls-4 {
        fill: #ac2025;
      }
    </style>
  </defs>
  <g>
    <path class="cls-1" d="M264.78,1343.13c-66.05,0-128.15-25.72-174.85-72.43s-72.43-108.8-72.43-174.85V264.78c0-66.05,25.72-128.15,72.43-174.85S198.73,17.5,264.78,17.5h831.08c66.05,0,128.15,25.72,174.85,72.43s72.43,108.8,72.43,174.85v831.08c0,66.05-25.72,128.15-72.43,174.85s-108.8,72.43-174.85,72.43H264.78Z"/>
    <path class="cls-2" d="M1095.85,35c31.04,0,61.12,6.07,89.43,18.04,27.36,11.57,51.93,28.14,73.05,49.26,21.11,21.11,37.69,45.69,49.26,73.05,11.97,28.31,18.04,58.39,18.04,89.43v831.08c0,31.04-6.07,61.12-18.04,89.43-11.57,27.36-28.14,51.93-49.26,73.05-21.11,21.11-45.69,37.69-73.05,49.26-28.31,11.97-58.39,18.04-89.43,18.04H264.78c-31.04,0-61.12-6.07-89.43-18.04-27.36-11.57-51.93-28.14-73.05-49.26-21.11-21.11-37.69-45.69-49.26-73.05-11.97-28.31-18.04-58.39-18.04-89.43V264.78c0-31.04,6.07-61.12,18.04-89.43,11.57-27.36,28.14-51.93,49.26-73.05,21.11-21.11,45.69-37.69,73.05-49.26,28.31-11.97,58.39-18.04,89.43-18.04h831.08M1095.85,0H264.78C118.54,0,0,118.54,0,264.78v831.08c0,146.23,118.54,264.78,264.78,264.78h831.08c146.23,0,264.78-118.54,264.78-264.78V264.78C1360.63,118.54,1242.09,0,1095.85,0h0Z"/>
  </g>
  <g>
    <path class="cls-3" d="M523.32,837.37c-4.05-77.27-45.16-205.84-45.16-205.84,45.81-39.12,174.45-143.37,221.93-183.94,44.65-38.16,83.53-72.34,108.08-93.3l110.16,74.32c-21.99,20.61-50.93,49.1-82.05,79.72-32.6,32.09-68.78,67.7-98.09,97.72l4.53,26.94c51.81-51,145.01-144.88,198.31-198.57l-12.74-181.85,48.47-41.42c41.79-35.71,123.04-107.36,146.18-127.88,0,0,60.62,38.07,106.49,47.99,15.35,52.97,49.28,108.55,49.28,108.55-20.05,22.33-73.2,80.39-103.31,115.31l-88.57-67.56,53.4-53.8-5.92-17.89-69.75,68.7,21.51,174.17-31.74,36.82c-65.41,75.87-282.41,334.18-326.36,386.6,0,0-137.6-44.15-204.64-44.79Z"/>
    <g>
      <path class="cls-4" d="M165.64,1195.05s70.78,16.57,140.7,82.93c0,0,95.69-69.03,53.03-144.88,29.33-25.78,200.28-171.24,200.28-171.24,0,0,63.99,71.1,82.96,120.29,10.96-2.67,93.03-34.96,149.02-81.47-2.67-9.18-92.53-237.41-96.41-335.2-7.55,7.55-529.58,529.58-529.58,529.58Z"/>
      <path class="cls-4" d="M165.64,1195.05s-16.57-70.78-82.93-140.7c0,0,69.03-95.69,144.88-53.03,25.78-29.33,171.24-200.28,171.24-200.28,0,0-71.1-63.99-120.29-82.96,2.67-10.96,34.96-93.03,81.47-149.02,9.18,2.67,237.41,92.53,335.2,96.41-7.55,7.55-529.58,529.58-529.58,529.58Z"/>
    </g>
  </g>
</svg>